# xmcd
#
# Track frame offsets: 
#        150
#        19508
#        47913
#        69681
#        84043
#        103521
#        120368
#        134226
#        150509
#        163966
#        180740
#        200237
#        219316
#        248670
#        265644
#        279480
#        293515
#        310228
#        341906
#
# Disc length: 4772 seconds
#
# Revision: 2
# Processed by: cddbd v1.5.2PL0 Copyright (c) Steve Scherf et al.
# Submitted via: ExactAudioCopy v0.99pb5
#
DISCID=1312a213
DTITLE=Al Green - Love and Happiness - The Very Best Of [CD 02)
DYEAR=2005
DGENRE=Soul
TTITLE0=Here I Am (Come And Take Me)
TTITLE1=How Can You Mend A Broken Heart?
TTITLE2=Belle
TTITLE3=Schooldays
TTITLE4=Hangin' On
TTITLE5=Have You Been Makin' Out OK?
TTITLE6=One Woman
TTITLE7=Never Found A Girl (Who Loves Me Like You Do)
TTITLE8=Sha La La (Make Me Happy)
TTITLE9=Take Me To The River
TTITLE10=Love Ritual
TTITLE11=Simply Beautiful
TTITLE12=For The Good Times
TTITLE13=I Can't Get Next To You
TTITLE14=L.O.V.E. (Love)
TTITLE15=Keep Me Cryin'
TTITLE16=Feels Like Summer
TTITLE17=Georgia Boy
TTITLE18=Loving You
EXTD=
EXTT0=
EXTT1=
EXTT2=
EXTT3=
EXTT4=
EXTT5=
EXTT6=
EXTT7=
EXTT8=
EXTT9=
EXTT10=
EXTT11=
EXTT12=
EXTT13=
EXTT14=
EXTT15=
EXTT16=
EXTT17=
EXTT18=
PLAYORDER=
